# ProBuilder 5.0.3
# https://unity3d.com/unity/features/worldbuilding/probuilder
# 6/26/2022 6:17:49 AM

mtllib ./metal-rail-nosides.mtl
o metal-rail-nosides

g metal-rail-nosides
v -0.06245708 1.187501 -4.577637E-05
v 4.291534E-05 1.187501 -4.577637E-05
v -0.06245708 1.190496 -4.577637E-05
v 4.291534E-05 1.190496 -4.577637E-05
v -0.01566076 0.7318122 -0.9375
v -0.01566076 0.7500005 -0.9375
v -0.037112 0.7500005 -0.9375
v -0.037112 0.7318122 -0.9375
v -0.06245708 0.7500005 0.06245422
v 4.291534E-05 0.7500005 0.06245422
v -0.03365898 0.7500005 0.06245422
v -0.01566076 0.7500005 0
v -0.01566076 0.7318122 0
v 4.291534E-05 0.7500005 -4.577637E-05
v -0.06245708 0.7500005 -4.577637E-05
v -0.037112 0.7500005 0
v -0.037112 0.7318122 0
v 4.291534E-05 1.12498 -0.9375
v 4.291534E-05 1.187501 -0.9375
v -0.06245708 1.187501 -0.9375
v -0.06245708 1.12498 -0.9375
v 4.291534E-05 1.12498 -4.577637E-05
v -0.06245708 1.12498 -4.577637E-05
v 4.291534E-05 -0.06124353 -0.9374199
v -0.06245708 -0.06124353 -0.9374199
v 4.291534E-05 -0.1237435 -0.9375782
v -0.06245708 -0.1237435 -0.9375782
v 4.291534E-05 -0.06251001 -4.577637E-05
v -0.06245708 -0.06251001 -4.577637E-05
v 4.291534E-05 -0.12501 -0.0002040863
v -0.06245708 -0.12501 -0.0002040863

vt 0.0625 0.9970045
vt 0 0.9970045
vt 0.0625 1
vt 0 1
vt 0 0.9818118
vt 0.02145123 1
vt 0.02145123 0.9818118
vt 0.9375 1
vt 0.9375 0.9818118
vt 0 0.9999542
vt 0.0625 0.9999542
vt 0.03715491 1
vt 0.01570368 1
vt 0.03715491 0.0625
vt 0.01570368 0.0625
vt 0.02145123 0.0625
vt 0 0.0625
vt 0 0.937479
vt 0.0625 0.937479
vt 0.9374542 0.937479
vt 0.9374542 1
vt 0 0.06254584
vt 0.0625 0.06254584
vt 0.9374542 0.9999998
vt 0.0001583099 0.9362335
vt 0 0.9987335
vt 0.9375324 0.9375
vt 0.9375324 0.9987335
vt 0.9373741 0.9362335
vt 0 0.9375

vn 0 0 -1
vn 0 0 0
vn 1 0 0
vn 0 1 0
vn -1 0 0
vn 0 -1 0
vn 0 0.002532951 -0.9999968
vn 0 0.9999991 0.001351092
vn 0 -0.9999991 -0.001351092

usemtl Swamp_Ground
f 10/4/2 9/4/2 11/4/2
f 4/4/1 2/2/1 1/1/1
f 1/1/1 3/3/1 4/4/1
f 7/6/1 6/4/1 5/5/1
f 5/5/1 8/7/1 7/6/1
f 6/8/3 12/4/3 13/5/3
f 13/5/3 5/9/3 6/8/3
f 14/10/2 12/13/2 16/12/2
f 16/12/2 15/11/2 14/10/2
f 12/13/4 6/15/4 7/14/4
f 7/14/4 16/12/4 12/13/4
f 7/4/5 8/5/5 17/9/5
f 17/9/5 16/8/5 7/4/5
f 13/6/6 17/4/6 8/17/6
f 8/17/6 5/16/6 13/6/6
f 20/3/1 19/4/1 18/18/1
f 18/18/1 21/19/1 20/3/1
f 19/21/3 2/10/3 22/18/3
f 22/18/3 18/20/3 19/21/3
f 20/23/4 1/3/4 2/4/4
f 2/4/4 19/22/4 20/23/4
f 21/18/5 23/20/5 1/24/5
f 1/24/5 20/4/5 21/18/5
f 18/23/6 22/3/6 23/4/6
f 23/4/6 21/22/6 18/23/6
f 27/19/7 25/3/7 24/4/7
f 24/4/7 26/18/7 27/19/7
f 25/23/8 29/3/8 28/4/8
f 28/4/8 24/22/8 25/23/8
f 24/21/3 28/26/3 30/25/3
f 30/25/3 26/27/3 24/21/3
f 27/30/5 31/29/5 29/28/5
f 29/28/5 25/4/5 27/30/5
f 26/23/9 30/3/9 31/4/9
f 31/4/9 27/22/9 26/23/9

