# ProBuilder 5.0.3
# https://unity3d.com/unity/features/worldbuilding/probuilder
# 6/26/2022 6:17:06 AM

mtllib ./metal-rail.mtl
o metal-rail

g metal-rail
v -0.06245708 1.250001 0.06245422
v -0.06245708 1.250001 -4.577637E-05
v 4.291534E-05 1.250001 -4.577637E-05
v 4.291534E-05 1.250001 0.06245422
v -0.06245708 -0.12501 -0.0002040863
v -0.06245708 -0.1250298 0.06229591
v 4.291534E-05 -0.1250298 0.06229591
v 4.291534E-05 -0.12501 -0.0002040863
v -0.06245708 1.187501 0.06245422
v -0.06245708 1.187501 -4.577637E-05
v 4.291534E-05 1.187501 -4.577637E-05
v 4.291534E-05 1.187501 0.06245422
v -0.06245708 -0.0625298 0.06245422
v -0.06245708 0.7187505 0.06245422
v 4.291534E-05 0.7187505 0.06245422
v 4.291534E-05 -0.0625298 0.06245422
v -0.06245708 0.7187505 -4.577637E-05
v -0.06245708 -0.06251001 -4.577637E-05
v 4.291534E-05 -0.06251001 -4.577637E-05
v 4.291534E-05 0.7187505 -4.577637E-05
v -0.01566076 0.7318122 -0.9375
v -0.01566076 0.7500005 -0.9375
v -0.037112 0.7500005 -0.9375
v -0.037112 0.7318122 -0.9375
v 4.291534E-05 0.7500005 0.06245422
v 4.291534E-05 0.7500005 -4.577637E-05
v -0.06245708 0.7500005 -4.577637E-05
v -0.06245708 0.7500005 0.06245422
v -0.03365898 0.7500005 0.06245422
v -0.03365898 0.7187505 0.06245422
v -0.01566076 0.7500005 0
v -0.01566076 0.7318122 0
v -0.037112 0.7500005 0
v -0.037112 0.7318122 0
v -0.06245708 1.12498 0.06245422
v 4.291534E-05 1.12498 0.06245422
v 4.291534E-05 1.12498 -4.577637E-05
v -0.06245708 1.12498 -4.577637E-05
v 4.291534E-05 1.12498 -0.9375
v 4.291534E-05 1.187501 -0.9375
v -0.06245708 1.187501 -0.9375
v -0.06245708 1.12498 -0.9375
v 4.291534E-05 -0.06124353 -0.9374199
v -0.06245708 -0.06124353 -0.9374199
v 4.291534E-05 -0.1237435 -0.9375782
v -0.06245708 -0.1237435 -0.9375782

vt 0.0625 1
vt 0.0625 0.9375
vt 0 0.9375
vt 0 1
vt 0 0.2187197
vt 0.0625 0.2187197
vt 0 0.9818118
vt 0.02145123 1
vt 0.02145123 0.9818118
vt 0 0.96875
vt 0.0625 0.96875
vt 0.0287981 1
vt 0.0287981 0.96875
vt 0.0337019 1
vt 0.0337019 0.96875
vt 0.01108803 1
vt 0.01108803 0.9818118
vt 0.6730338 1
vt 0.6730338 0.9818118
vt 0 0.9999542
vt 0.0625 0.9999542
vt 0.03715491 1
vt 0.01570368 1
vt 0.03715491 0.0625
vt 0.01570368 0.0625
vt 0.6802192 1
vt 0.6802192 0.96875
vt 0.6623137 0.9818118
vt 0.6623137 1
vt 0.0625 0.3290301
vt 0 0.3290301
vt 0.01570368 0.33825
vt 0.03715491 0.33825
vt 0.0625 0.5624995
vt 0 0.5624995
vt 0 0.9374793
vt 0.0625 0.9374793
vt 0 0.6250203
vt 0.0625 0.6250203
vt 0.9374542 0.937479
vt 0.9374542 1
vt 0 0.06254584
vt 0.0625 0.06254584
vt 0.9374542 0.9999998
vt 0.06265831 0.9999802
vt 0.06265831 0.9375
vt 0.0001583099 0.9362335
vt 0 0.9987335
vt 0.9375324 0.9375
vt 0.9375324 0.9987335
vt 0.9373741 0.9362335

vn 0 1 0
vn 0 -1 -0.0003166199
vn -1 0 0
vn 0 0 -1
vn 1 0 0
vn 0 0 1
vn 0 0 0
vn -0.002914997 0 -0.9999958
vn 0.001806121 0 -0.9999984
vn 0 0.003504587 -0.9999939
vn 0 -0.002532951 0.9999968
vn 0 0.002532951 -0.9999968
vn 0 0.9999991 0.001351092
vn 0 -0.9999991 -0.001351092

usemtl Swamp_Ground
f 25/4/7 28/4/7 29/4/7
f 3/3/1 2/2/1 1/1/1
f 1/1/1 4/4/1 3/3/1
f 7/1/2 6/4/2 5/3/2
f 5/3/2 8/2/2 7/1/2
f 2/4/3 10/3/3 9/2/3
f 9/2/3 1/1/3 2/4/3
f 3/4/4 11/3/4 10/2/4
f 10/2/4 2/1/4 3/4/4
f 4/4/5 12/3/5 11/2/5
f 11/2/5 3/1/5 4/4/5
f 14/4/6 13/5/6 16/6/6
f 16/6/6 15/1/6 14/4/6
f 17/1/4 20/4/4 19/5/4
f 19/5/4 18/6/4 17/1/4
f 20/1/5 15/4/5 16/5/5
f 16/5/5 19/6/5 20/1/5
f 17/4/3 18/5/3 13/6/3
f 13/6/3 14/1/3 17/4/3
f 23/8/4 22/4/4 21/7/4
f 21/7/4 24/9/4 23/8/4
f 26/1/5 25/4/5 15/10/5
f 15/10/5 20/11/5 26/1/5
f 27/4/3 17/10/3 14/11/3
f 14/11/3 28/1/3 27/4/3
f 29/12/6 28/4/6 14/10/6
f 14/10/6 30/13/6 29/12/6
f 25/14/6 29/4/6 30/10/6
f 30/10/6 15/15/6 25/14/6
f 1/4/6 9/3/6 12/2/6
f 12/2/6 4/1/6 1/4/6
f 31/16/8 26/4/8 20/10/8
f 20/10/8 32/17/8 31/16/8
f 22/18/5 31/16/5 32/17/5
f 32/17/5 21/19/5 22/18/5
f 26/20/7 31/23/7 33/22/7
f 33/22/7 27/21/7 26/20/7
f 31/23/1 22/25/1 23/24/1
f 23/24/1 33/22/1 31/23/1
f 33/29/9 34/28/9 17/27/9
f 17/27/9 27/26/9 33/29/9
f 23/4/3 24/7/3 34/28/3
f 34/28/3 33/29/3 23/4/3
f 20/31/10 17/30/10 34/33/10
f 34/33/10 32/32/10 20/31/10
f 32/32/2 34/33/2 24/22/2
f 24/22/2 21/23/2 32/32/2
f 35/36/6 28/35/6 25/34/6
f 25/34/6 36/37/6 35/36/6
f 9/4/6 35/36/6 36/37/6
f 36/37/6 12/1/6 9/4/6
f 38/1/4 37/4/4 26/38/4
f 26/38/4 27/39/4 38/1/4
f 41/1/4 40/4/4 39/36/4
f 39/36/4 42/37/4 41/1/4
f 37/37/5 36/36/5 25/35/5
f 25/35/5 26/34/5 37/37/5
f 11/1/5 12/4/5 36/36/5
f 36/36/5 37/37/5 11/1/5
f 38/36/3 27/35/3 28/34/3
f 28/34/3 35/37/3 38/36/3
f 10/4/3 38/36/3 35/37/3
f 35/37/3 9/1/3 10/4/3
f 40/41/5 11/20/5 37/36/5
f 37/36/5 39/40/5 40/41/5
f 41/43/1 10/1/1 11/4/1
f 11/4/1 40/42/1 41/43/1
f 42/36/3 38/40/3 10/44/3
f 10/44/3 41/4/3 42/36/3
f 39/43/2 37/1/2 38/4/2
f 38/4/2 42/42/2 39/43/2
f 6/37/3 13/45/3 18/4/3
f 18/4/3 5/3/3 6/37/3
f 7/37/11 16/21/11 13/20/11
f 13/20/11 6/36/11 7/37/11
f 8/46/5 19/1/5 16/20/5
f 16/20/5 7/36/5 8/46/5
f 46/37/12 44/1/12 43/4/12
f 43/4/12 45/36/12 46/37/12
f 44/43/13 18/1/13 19/4/13
f 19/4/13 43/42/13 44/43/13
f 43/41/5 19/48/5 8/47/5
f 8/47/5 45/49/5 43/41/5
f 46/3/3 5/51/3 18/50/3
f 18/50/3 44/4/3 46/3/3
f 45/43/14 8/1/14 5/4/14
f 5/4/14 46/42/14 45/43/14

