# ProBuilder 5.0.3
# https://unity3d.com/unity/features/worldbuilding/probuilder
# 6/26/2022 6:10:22 AM

mtllib ./stairway1-metal-rail.mtl
o stairway1-metal-rail

g stairway1-metal-rail
v -0.06245708 1.250001 0.06245422
v -0.06245708 1.250001 -4.577637E-05
v 4.291534E-05 1.250001 -4.577637E-05
v 4.291534E-05 1.250001 0.06245422
v -0.06245708 -0.125 -4.577637E-05
v -0.06245708 -0.0625 0.06245422
v 4.291534E-05 -0.0625 0.06245422
v 4.291534E-05 -0.125 -4.577637E-05
v -0.06245708 1.187501 0.06245422
v -0.06245708 1.187501 -4.577637E-05
v 4.291534E-05 1.187501 -4.577637E-05
v 4.291534E-05 1.187501 0.06245422
v 4.291534E-05 2.125002 0.9999552
v -0.06245708 2.125002 0.9999552
v 4.291534E-05 2.187502 0.9999552
v -0.06245708 2.187502 0.9999552
v -0.06245708 1.625001 0.4999552
v 4.291534E-05 1.625001 0.4999552
v 4.291534E-05 1.687501 0.4999552
v -0.06245708 1.687501 0.4999552
v -0.001273155 0.3750005 0.4999552
v -0.06377316 0.3750005 0.4999552
v -0.06377316 0.4375005 0.5624552
v -0.001273155 0.4375005 0.5624552
v -0.06245708 1.687501 0.5624552
v 4.291534E-05 1.687501 0.5624552
v 4.291534E-05 1.750001 0.5624552
v -0.06245708 1.750001 0.5624552
v -0.06245708 0.7187505 0.06245422
v 4.291534E-05 0.7187505 0.06245422
v -0.06245708 0.7187505 -4.577637E-05
v 4.291534E-05 0.7187505 -4.577637E-05
v -0.01842022 1.718751 0.9999552
v -0.04889774 1.718751 0.9999552
v -0.04889774 1.750001 0.9999552
v -0.01842022 1.750001 0.9999552
v -0.06245708 0.7500005 0.06245422
v 4.291534E-05 0.7500005 0.06245422
v 4.291534E-05 0.7500005 -4.577637E-05
v -0.06245708 0.7500005 -4.577637E-05
v -0.04889774 0.7187505 0.06245422
v -0.01842022 0.7187505 0.06245422
v -0.04889774 0.7500005 0.06245422
v -0.01842022 0.7500005 0.06245422

vt 0.0625 1
vt 0.0625 0.9375
vt 0 0.9375
vt 0 1
vt 0 0.9116117
vt 0.0625 0.9116117
vt 0.0625 -0.3258266
vt 0 -0.3258266
vt 0 0.2928929
vt 0.0625 0.2928929
vt 0.937501 0.06249905
vt 0.937501 -9.536743E-07
vt 0.5 0.4374995
vt 0.5 0.4999995
vt 0 -9.536743E-07
vt 0 0.06249905
vt 0.437501 0.4999995
vt 0.437501 0.4374995
vt 0 0.3812813
vt 0.0625 0.3812813
vt 0.4375 0.5624995
vt 0.500001 0.5624995
vt 0.937501 1
vt 0.937501 0.9375
vt 0.001316071 -0.250001
vt 0.06381607 -0.250001
vt 0.06250134 0.9375
vt 0 -0.2500017
vt 0.06249994 -0.3125017
vt 1.370907E-06 -0.3125017
vt 0.06250131 -0.2500017
vt 0.001316071 1
vt 0.06381607 1
vt 0.0625 -0.250001
vt 0 0.2187495
vt 0.0625 0.2187495
vt 0.0625 0.1562495
vt 0 0.1562495
vt 0.03047752 0.96875
vt 0 0.96875
vt 0.03047752 1
vt 0 0.5624995
vt 0.0625 0.5624995
vt 0.0625 0.96875
vt 0.0625 -0.3707334
vt 0 -0.3707334
vt 0.01355934 -0.3707334
vt 0.04403687 -0.3707334
vt 0.01355934 1
vt 0.04403687 1
vt 0 -0.03125095
vt 0.009587902 -9.536743E-07
vt 0.009587902 -0.03125095
vt 0.6725011 1
vt 0.6725011 0.96875
vt 0.6759687 -9.536743E-07
vt 0.6759687 -0.03125095
vt 0.6629133 -0.03125095
vt 0.6629133 -9.536743E-07
vt 0.01846313 -0.3707334
vt 0.04894066 -0.3707334
vt 0.01846313 1
vt 0.04894066 1

vn 0 1 0
vn 0 -0.7071068 0.7071068
vn -1 0 0
vn 0 0 -1
vn 1 0 0
vn 0 0 1
vn 0 0.7071072 -0.7071064
vn 0.9999989 -0.001052854 0.001052854
vn -0.9999989 0.001052854 -0.001052854
vn 0 0 0
vn 0 -0.6839411 0.7295372
vn 0 0.6839411 -0.7295372

usemtl Swamp_Ground
f 4/4/1 3/3/1 2/2/1 1/1/1
f 8/6/2 7/1/2 6/4/2 5/5/2
f 1/1/3 2/4/3 10/3/3 9/2/3
f 2/1/4 3/4/4 11/3/4 10/2/4
f 3/1/5 4/4/5 12/3/5 11/2/5
f 15/1/6 16/4/6 14/3/6 13/2/6
f 18/10/2 17/9/2 9/8/2 12/7/2
f 12/12/5 4/11/5 19/14/5 18/13/5
f 17/18/3 20/17/3 1/16/3 9/15/3
f 1/7/7 20/10/7 19/9/7 4/8/7
f 24/1/2 23/4/2 22/5/2 21/6/2
f 13/1/2 14/4/2 25/19/2 26/20/2
f 26/17/5 27/21/5 15/4/5 13/3/5
f 18/13/5 19/14/5 27/21/5 26/17/5
f 25/14/3 28/22/3 20/17/3 17/18/3
f 14/24/3 16/23/3 28/22/3 25/14/3
f 27/19/7 19/9/7 20/10/7 28/20/7
f 15/4/7 27/19/7 28/20/7 16/1/7
f 21/25/4 22/26/4 17/1/4 18/4/4
f 24/28/8 21/29/8 18/27/8 26/4/8
f 22/30/9 23/31/9 25/1/9 17/3/9
f 23/28/6 24/34/6 26/33/6 25/32/6
f 30/1/6 29/4/6 6/35/6 7/36/6
f 5/37/4 31/1/4 32/4/4 8/38/4
f 8/37/5 32/1/5 30/4/5 7/35/5
f 29/1/3 31/4/3 5/38/3 6/36/3
f 36/41/6 35/4/6 34/40/6 33/39/6
f 12/1/6 9/4/6 37/42/6 38/43/6
f 31/44/4 40/1/4 39/4/4 32/40/4
f 40/43/4 10/1/4 11/4/4 39/42/4
f 32/44/5 39/1/5 38/4/5 30/40/5
f 39/43/5 11/1/5 12/4/5 38/42/5
f 37/1/3 40/4/3 31/40/3 29/44/3
f 9/1/3 10/4/3 40/42/3 37/43/3
f 42/48/10 41/47/10 29/46/10 30/45/10
f 33/50/11 34/49/11 41/47/11 42/48/11
f 41/53/6 43/52/6 37/15/6 29/51/6
f 34/55/3 35/54/3 43/52/3 41/53/3
f 30/57/6 38/56/6 44/59/6 42/58/6
f 42/58/5 44/59/5 36/4/5 33/40/5
f 37/45/10 43/61/10 44/60/10 38/46/10
f 43/61/12 35/63/12 36/62/12 44/60/12

