# ProBuilder 5.0.3
# https://unity3d.com/unity/features/worldbuilding/probuilder
# 6/26/2022 6:03:03 AM

mtllib ./wall1-concrete-corner.mtl
o wall1-concrete-corner

g wall1-concrete-corner
v 1.000395 -0.0001655518 1.000001
v 0.0003913641 -0.0001652836 1.000001
v 1.000395 0.1248538 1.000001
v 0.0003951825 0.124854 1.000001
v 0.0003913641 -0.0001646876 1.862675E-06
v 0.0003951825 0.1249139 -0.1250001
v 1.000395 -0.0001646876 1.862675E-06
v 1.000395 0.1249127 -0.1250001
v -0.0003788173 -1 1.803041E-06
v 0.9996251 -1.000001 1.803041E-06
v -0.0003750026 -1 -0.1250001
v 0.9996289 -1.000001 -0.1250001

vt 1.401737 0.3272463
vt 0.4017336 0.3272465
vt 1.401737 0.4522657
vt 0.4017374 0.4522659
vt 1.401343 0.3272456
vt 0.4013441 0.3272462
vt 1.401343 0.4522649
vt 0.2763422 0.4523248
vt -0.5986584 0.3272443
vt 0.5263424 0.4523225
vt -0.5986585 0.4522637
vt -0.599053 1.327405
vt 0.4009471 1.327405
vt -0.599053 0.2024043
vt 0.4009471 0.2024043
vt 1.401737 1.327412
vt 0.4017336 1.327412
vt 0.4009639 0.3274127
vt 1.400968 0.3274127
vt 1.400972 0.2024108
vt 0.4009634 -0.6725894
vt 1.400967 -0.6725898
vt 0.2763419 -0.6725894
vt 0.4013438 -0.6725894
vt 0.4005683 0.3280168
vt 0.5255702 0.4530943
vt 0.4005689 -0.6718195
vt 0.5255708 -0.6718193
vt -0.599053 0.4523236
vt 0.400947 0.4523247
vt -0.5982867 -0.6725897
vt 0.4017172 -0.6725894

vn -2.557547E-13 -9.535263E-07 1
vn -1 3.054266E-05 1.820487E-11
vn 1 1.072222E-06 1.192104E-07
vn 1.788139E-07 1 5.23527E-05
vn 0 -1 -8.642684E-07
vn -0.9999996 0.0006846609 0.0006545339
vn -0.9999996 0.0007274844 0.0003120084
vn 0.9999994 -0.000770337 -0.0007717559
vn 0.9999996 -0.0007257623 -0.0003706197
vn 1.50015E-14 1.32465E-08 -1

usemtl Concrete_1
f 3/3/1 4/4/1 2/2/1 1/1/1
f 4/7/2 6/8/2 5/6/2 2/5/2
f 8/10/3 3/11/3 1/9/3 7/6/3
f 8/14/4 6/15/4 4/13/4 3/12/4
f 1/16/5 2/17/5 5/2/5 7/1/5
f 11/15/5 12/20/5 10/19/5 9/18/5
f 9/21/1 10/22/1 7/1/1 5/2/1
f 11/23/7 9/24/7 5/6/7 6/8/6
f 10/27/9 12/28/9 8/26/9 7/25/8
f 12/31/10 11/32/10 6/30/10 8/29/10

