# ProBuilder 5.0.3
# https://unity3d.com/unity/features/worldbuilding/probuilder
# 6/26/2022 5:56:22 AM

mtllib ./wall1-concrete.mtl
o wall1-concrete

g wall1-concrete
v 1.000002 -0.1250122 1
v 1.907349E-06 -0.1250122 1
v 1.000002 7.152557E-06 1
v 2.026558E-06 7.152557E-06 1
v 1.907349E-06 -0.1250122 0
v 2.026558E-06 7.152557E-06 0
v 1.000002 -0.1250122 0
v 1.000002 7.152557E-06 0

vt 1.401344 0.2023987
vt 0.4013441 0.2023987
vt 1.401344 0.327418
vt 0.4013442 0.327418
vt -0.5986598 0.2023987
vt -0.5986598 0.327418
vt -0.5986598 1.327411
vt 0.4013402 1.327411
vt 1.401344 1.327411

vn 0 0 1
vn -1 9.53527E-07 0
vn 0 0 -1
vn 1 0 0
vn 0 1 0
vn 0 -1 0

usemtl Concrete_1
f 3/3/1 4/4/1 2/2/1 1/1/1
f 4/3/2 6/4/2 5/2/2 2/1/2
f 6/4/3 8/6/3 7/5/3 5/2/3
f 8/4/4 3/6/4 1/5/4 7/2/4
f 8/6/5 6/4/5 4/8/5 3/7/5
f 1/9/6 2/8/6 5/4/6 7/3/6

